<?xml version="1.0" standalone="no"?>
<!DOCTYPE svg PUBLIC "-//W3C//DTD SVG 20010904//EN"
 "http://www.w3.org/TR/2001/REC-SVG-20010904/DTD/svg10.dtd">
<svg version="1.0" xmlns="http://www.w3.org/2000/svg"
 width="700.000000pt" height="700.000000pt" viewBox="0 0 700.000000 700.000000"
 preserveAspectRatio="xMidYMid meet">
<metadata>
Created by potrace 1.14, written by Peter Selinger 2001-2017
</metadata>
<g transform="translate(0.000000,700.000000) scale(0.100000,-0.100000)"
fill="#000000" stroke="none">
<path d="M3857 6655 c-36 -18 -71 -46 -127 -100 -253 -241 -394 -649 -393
-1140 0 -105 11 -318 18 -356 2 -10 6 -46 10 -80 4 -35 8 -66 10 -69 1 -3 6
-30 9 -61 l7 -57 -58 -48 c-32 -27 -63 -53 -69 -59 -6 -5 -39 -35 -74 -65
-150 -131 -290 -265 -380 -366 -93 -104 -109 -122 -165 -198 -221 -299 -324
-579 -330 -899 -9 -490 249 -907 675 -1092 118 -51 228 -82 360 -102 57 -8
360 -10 464 -2 65 4 66 3 79 -84 5 -33 25 -154 32 -194 2 -12 9 -57 15 -100 6
-43 13 -89 16 -103 16 -98 22 -290 11 -376 -16 -120 -83 -264 -148 -319 -73
-61 -169 -106 -260 -121 -177 -28 -382 8 -412 74 -14 31 1 43 92 73 36 12 77
29 91 37 118 72 174 209 149 364 -30 188 -177 302 -366 285 -204 -19 -346
-195 -336 -417 3 -89 19 -152 58 -235 60 -125 162 -216 302 -268 187 -69 447
-62 626 17 178 79 290 215 342 419 21 82 23 108 20 247 -3 85 -7 173 -10 195
-10 75 -86 529 -90 535 -8 13 14 28 115 77 245 119 409 299 479 527 32 103 33
111 37 251 6 222 -44 383 -171 550 -54 71 -65 82 -145 146 -130 104 -317 167
-505 170 -38 0 -77 3 -86 5 -19 5 -32 50 -54 184 -8 52 -17 106 -20 120 -3 14
-8 39 -10 55 -3 17 -10 55 -16 85 -5 30 -12 80 -15 110 l-5 55 103 105 c383
391 579 806 581 1230 1 166 -10 267 -43 409 -53 224 -163 437 -288 554 -55 50
-79 56 -125 32z m174 -539 c162 -68 182 -358 43 -627 -26 -51 -75 -129 -107
-173 -54 -73 -267 -294 -374 -389 -43 -37 -72 -47 -74 -24 0 6 -2 21 -4 32
-19 92 -26 363 -14 470 14 121 18 143 34 207 64 254 198 450 343 503 49 18
112 18 153 1z m-526 -1927 c20 -127 36 -225 45 -279 5 -36 12 -76 15 -90 3
-14 8 -48 11 -76 7 -59 11 -55 -97 -100 -231 -95 -408 -304 -448 -530 -62
-343 106 -660 399 -752 74 -24 98 -24 114 0 20 28 11 39 -66 80 -107 57 -191
165 -217 277 -12 53 -7 157 9 207 20 59 57 114 111 165 95 89 286 159 290 105
1 -20 32 -212 44 -276 3 -14 12 -68 21 -120 8 -52 17 -106 19 -120 8 -40 36
-202 41 -232 9 -62 14 -88 34 -207 13 -74 17 -128 12 -133 -16 -16 -164 -34
-267 -33 -453 8 -798 207 -928 535 -86 217 -65 527 52 775 93 198 292 430 571
669 227 195 225 193 235 135z m460 -970 c279 -80 461 -387 395 -669 -32 -139
-150 -289 -283 -360 -73 -38 -82 -36 -91 20 -8 49 -27 171 -31 196 -2 11 -8
46 -15 77 -6 32 -13 70 -15 85 -2 15 -11 70 -20 122 -9 52 -18 109 -21 125 -3
17 -7 37 -9 45 -2 8 -7 33 -10 55 -3 22 -16 101 -29 175 -13 74 -21 139 -19
143 6 10 93 2 148 -14z"/>
</g>
</svg>
