<svg id="super-ellipse" viewBox="0 0 100 100" xmlns="http://www.w3.org/2000/svg">
   <clipPath id='se'>
      <path d="M 50 0 L 49.999999999999986 0 L 49.99999948319087 3.145733330167613 L 49.99996612776291 6.316464643246751 L 49.99959845595319 9.537933512304768 L 49.9976128844301 12.837205111280836 L 49.99020110646016 16.242800958132932 L 49.96797111363174 19.78371930668227 L 49.91009274116811 23.485906915984575 L 49.77357719766953 27.3632556206948 L 49.47543814297361 31.398067799982854 L 48.86944984999039 35.505733636243214 L 47.735825667481585 39.49050939254033 L 45.83223778122484 43.03933605806013 L 43.03933605806016 45.832237781224826 L 39.49050939254035 47.73582566748158 L 35.50573363624324 48.86944984999038 L 31.398067799982876 49.47543814297361 L 27.363255620694808 49.77357719766953 L 23.48590691598458 49.91009274116811 L 19.783719306682265 49.96797111363174 L 16.242800958132925 49.99020110646016 L 12.83720511128082 49.9976128844301 L 9.53793351230475 49.99959845595319 L 6.316464643246729 49.99996612776291 L 3.1457333301675874 49.99999948319087 L -3.0245073740886305e-14 49.999999999999986 L -3.1457333301676482 49.99999948319087 L -6.316464643246789 49.99996612776291 L -9.537933512304816 49.9995984559532 L -12.837205111280886 49.997612884430104 L -16.24280095813299 49.990201106460155 L -19.783719306682336 49.96797111363174 L -23.48590691598464 49.91009274116811 L -27.363255620694872 49.773577197669525 L -31.398067799982943 49.475438142973594 L -35.505733636243306 48.869449849990374 L -39.490509392540424 47.73582566748155 L -43.039336058060215 45.832237781224784 L -45.83223778122489 43.039336058060066 L -47.73582566748162 39.49050939254025 L -48.86944984999041 35.505733636243114 L -49.475438142973616 31.398067799982748 L -49.77357719766954 27.36325562069469 L -49.91009274116811 23.48590691598446 L -49.96797111363175 19.783719306682155 L -49.99020110646016 16.242800958132815 L -49.99761288443011 12.83720511128072 L -49.99959845595319 9.537933512304651 L -49.99996612776291 6.316464643246631 L -49.99999948319088 3.145733330167491 L -49.999999999999986 -1.27103528959282e-13 L -49.99999948319088 -3.1457333301677455 L -49.9999661277629 -6.3164646432468885 L -49.99959845595319 -9.537933512304912 L -49.9976128844301 -12.837205111280987 L -49.99020110646016 -16.242800958133095 L -49.967971113631734 -19.783719306682446 L -49.9100927411681 -23.48590691598477 L -49.773577197669525 -27.36325562069501 L -49.47543814297359 -31.398067799983078 L -48.86944984999034 -35.50573363624344 L -47.7358256674815 -39.490509392540545 L -45.832237781224705 -43.03933605806033 L -43.03933605805995 -45.83223778122497 L -39.49050939254011 -47.73582566748167 L -35.505733636242994 -48.86944984999043 L -31.398067799982663 -49.47543814297362 L -27.363255620694634 -49.77357719766954 L -23.48590691598444 -49.91009274116811 L -19.78371930668216 -49.96797111363175 L -16.242800958132843 -49.990201106460155 L -12.837205111280769 -49.997612884430104 L -9.537933512304724 -49.9995984559532 L -6.316464643246724 -49.99996612776291 L -3.1457333301676047 -49.99999948319087 L -9.184850993605146e-15 -49.999999999999986 L 3.145733330167586 -49.99999948319087 L 6.316464643246704 -49.9999661277629 L 9.537933512304704 -49.99959845595319 L 12.837205111280749 -49.997612884430104 L 16.242800958132825 -49.99020110646016 L 19.783719306682134 -49.96797111363174 L 23.48590691598442 -49.91009274116811 L 27.36325562069461 -49.77357719766953 L 31.39806779998264 -49.47543814297363 L 35.50573363624298 -48.86944984999044 L 39.49050939254009 -47.735825667481684 L 43.03933605805992 -45.832237781225004 L 45.832237781224656 -43.039336058060385 L 47.735825667481464 -39.49050939254066 L 48.86944984999032 -35.505733636243576 L 49.475438142973566 -31.39806779998325 L 49.77357719766951 -27.3632556206952 L 49.91009274116809 -23.48590691598498 L 49.96797111363174 -19.783719306682674 L 49.99020110646015 -16.242800958133333 L 49.997612884430104 -12.837205111281246 L 49.99959845595318 -9.537933512305186 L 49.9999661277629 -6.316464643247176 L 49.999999483190884 -3.1457333301680546 L 49.999999999999986 -4.56335677841536e-13" />
   </clipPath>
</svg>
