<svg width="512" height="512" xmlns="http://www.w3.org/2000/svg"><path fill="#005fb2" fill-rule="evenodd" d="M261.632 237.928c.768 4.864.768 4.608-3.84 6.144-22.528 7.68-37.12 27.904-37.12 49.664 0 23.04 12.032 39.424 29.44 45.312 2.048.768 5.12 1.536 6.912 1.536 2.048 0 3.072-1.28 3.072-2.816 0-1.792-2.048-2.56-3.84-3.328-10.752-4.608-18.432-15.616-18.432-27.392 0-14.592 9.984-25.6 25.6-29.952 4.096-1.024 4.608-.768 5.12 2.048l12.8 76.288c.512 2.816.256 2.816-3.584 3.584-4.096.768-9.216 1.28-14.336 1.28-44.8 0-73.728-24.832-73.728-60.416 0-15.104 2.56-35.328 23.808-59.392 15.36-17.152 27.136-26.624 39.168-36.352 2.56-2.048 3.072-1.792 3.584 1.024Zm27.904-174.336c8.448 0 15.36 6.912 15.36 20.992 0 28.416-24.32 51.456-44.544 69.12-1.792 1.536-2.816 1.28-3.328-2.048-1.024-6.656-1.536-15.36-1.536-23.552 0-39.936 18.432-64.512 34.048-64.512Zm-10.24 215.04c-.512-3.072-.256-3.84 2.816-3.584 20.736 1.792 37.888 19.2 37.888 41.728 0 16.128-9.728 29.184-24.064 36.352-3.072 1.536-3.584 1.536-4.096-1.536Zm-13.824-79.872c-.512-3.072 0-3.328 1.536-4.864 27.648-25.856 48.64-58.368 48.64-97.536 0-22.272-6.144-44.288-16.64-59.648-3.84-5.632-10.496-12.8-13.312-12.8-3.584 0-11.52 6.656-16.64 12.288-18.944 20.992-25.088 52.992-25.088 79.616 0 14.848 1.792 31.488 3.584 41.984.512 3.072.768 3.584-2.304 6.144-36.864 30.464-76.032 67.072-76.032 118.784 0 44.544 30.464 86.784 93.184 86.784 5.888 0 12.544-.512 17.664-1.536 2.816-.512 3.328-.768 3.84 2.304 3.072 17.152 6.912 39.424 6.912 51.456 0 37.888-25.6 42.496-40.704 42.496-13.824 0-20.48-4.096-20.48-7.424 0-1.792 2.304-2.56 8.192-4.352 7.936-2.304 17.152-9.216 17.152-24.064 0-14.08-8.96-26.112-24.576-26.112-17.152 0-27.392 13.568-27.392 29.44 0 16.64 9.984 41.728 48.64 41.728 17.152 0 50.432-7.68 50.432-51.2 0-14.592-4.608-38.912-7.424-54.784-.512-3.072-.256-2.816 3.328-4.352 25.856-10.24 43.008-32 43.008-60.928 0-32.768-24.064-61.696-61.696-61.696-6.656 0-6.656 0-7.424-4.608Z"/></svg>